              ***********************************************

                PublicHash - Largest Bittorrent Community
      
                          http://publichash.com/
    
              ***********************************************

Epic.2013.TS.XviD.AC3.HQ.Hive-CM8

Video: 720x288 @bitrate 2000 2pass
Audio: English AC3 2.0 Stereo
Sample: Yes, included
IMDb: http://www.imdb.com/title/tt0848537/

SOURCES
Video: Spanish HDCam - thx
Audio: Milleniums Line - thx

ENCODE
took me 2 days for video and 5h of audio syncing, but result got great
NO PIXELATION like on russian vid
source was nice just needed adjusting
brightness, contrast, rgb, hue, saturation and denoise
for Audio, took me 86 cuts to make this lipsync, wasnt easy i can tell
cleaned up the line, sounds very nice now too
will def. do me till retail
got very nice
enjoy

General
Complete name: Epic.2013.TS.XviD.AC3.HQ.Hive-CM8.avi
Format: AVI
Format/Info: Audio Video Interleave
File size: 1.49 GiB
Duration: 1h 34mn
Overall bit rate: 2 267 Kbps
Writing application: Nandub v1.0rc2
Writing library: Nandub build 1853/release

Video
ID: 0
Format: MPEG-4 Visual
Format profile: Advanced Simple@L5
Format settings, BVOP: 2
Format settings, QPel: Yes
Format settings, GMC: No warppoints
Format settings, Matrix: Default (H.263)
Muxing mode: Packed bitstream
Codec ID: XVID
Codec ID/Hint: XviD
Duration: 1h 34mn
Bit rate: 2 000 Kbps
Width: 720 pixels
Height: 288 pixels
Display aspect ratio: 2.500
Frame rate: 29.970 fps
Color space: YUV
Chroma subsampling: 4:2:0
Bit depth: 8 bits
Scan type: Progressive
Compression mode: Lossy
Bits/(Pixel*Frame): 0.322
Stream size: 1.31 GiB (88%)
Writing library: XviD 1.2.1 (UTC 2008-12-04)

Audio
ID: 1
Format: AC-3
Format/Info: Audio Coding 3
Mode extension: CM (complete main)
Format settings, Endianness: Big
Codec ID: 2000
Duration: 1h 34mn
Bit rate mode: Constant
Bit rate: 256 Kbps
Channel(s): 2 channels
Channel positions: Front: L R
Sampling rate: 48.0 KHz
Bit depth: 16 bits
Compression mode: Lossy
Stream size: 172 MiB (11%)
Alignment: Split accross interleaves
Interleave, duration: 33 ms (1.00 video frame)
Interleave, preload duration: 500 ms

PLOT
A teenager finds herself transported to a deep forest setting where a battle between
the forces of good and the forces of evil is taking place. She bands together with a
rag-tag group of characters in order to save their world -- and ours

CAST
Amanda Seyfried ... Mary Katherine (M.K.) (voice)
Colin Farrell ... Ronin (voice)
Josh Hutcherson ... Nod (voice)
Beyonce Knowles ... Queen Tara (voice) 